<?xml version="1.0" encoding="utf-8"?>
<!-- Generator: Adobe Illustrator 16.0.0, SVG Export Plug-In . SVG Version: 6.00 Build 0)  -->
<!DOCTYPE svg PUBLIC "-//W3C//DTD SVG 1.1//EN" "http://www.w3.org/Graphics/SVG/1.1/DTD/svg11.dtd">
<svg version="1.1" id="Layer_1" xmlns="http://www.w3.org/2000/svg" xmlns:xlink="http://www.w3.org/1999/xlink" x="0px" y="0px"
	 width="108px" height="30px" viewBox="0 0 108 30" enable-background="new 0 0 108 30" xml:space="preserve">
<g>
	<g>
		<g>
			<path fill-rule="evenodd" clip-rule="evenodd" fill="#154A93" d="M1.332,30.094l6.684-15.516h9.48c0,0,2.33,0.155,4.039,1.706
				c1.711,1.398,2.021,3.103,2.021,3.103l-12.744-0.154L6.15,30.094H1.332z"/>
			<path fill-rule="evenodd" clip-rule="evenodd" fill="#154A93" d="M7.082,30.094l4.352-9.775h12.432c0,0,0.467,0.775,0.467,1.707
				c0,1.088-0.311,2.018-0.311,2.018h-9.789l-2.488,6.051H7.082z"/>
			<path fill-rule="evenodd" clip-rule="evenodd" fill="#154A93" d="M14.854,24.975h9.012c0,0-0.465,1.705-2.174,3.258
				c-1.555,1.551-2.799,1.861-2.799,1.861h-6.215L14.854,24.975z"/>
		</g>
		<g>
			<linearGradient id="SVGID_1_" gradientUnits="userSpaceOnUse" x1="-0.5898" y1="26.7661" x2="20.8959" y2="14.3613">
				<stop  offset="0" style="stop-color:#FFFFFF;stop-opacity:0"/>
				<stop  offset="0.477" style="stop-color:#FFFFFF;stop-opacity:0.2636"/>
				<stop  offset="0.543" style="stop-color:#FFFFFF;stop-opacity:0.3"/>
				<stop  offset="0.5728" style="stop-color:#FFFFFF;stop-opacity:0.2804"/>
				<stop  offset="1" style="stop-color:#FFFFFF;stop-opacity:0"/>
			</linearGradient>
			<path fill="url(#SVGID_1_)" d="M23.557,19.387c0,0-0.311-1.705-2.021-3.103c-1.709-1.551-4.039-1.706-4.039-1.706h-9.48
				L1.332,30.094H6.15l4.662-10.861L23.557,19.387z"/>
			<linearGradient id="SVGID_2_" gradientUnits="userSpaceOnUse" x1="6.3164" y1="28.769" x2="23.1367" y2="19.0579">
				<stop  offset="0" style="stop-color:#FFFFFF;stop-opacity:0"/>
				<stop  offset="0.477" style="stop-color:#FFFFFF;stop-opacity:0.2636"/>
				<stop  offset="0.543" style="stop-color:#FFFFFF;stop-opacity:0.3"/>
				<stop  offset="0.5728" style="stop-color:#FFFFFF;stop-opacity:0.2804"/>
				<stop  offset="1" style="stop-color:#FFFFFF;stop-opacity:0"/>
			</linearGradient>
			<path fill="url(#SVGID_2_)" d="M23.865,20.319H11.434l-4.352,9.775h4.662l2.488-6.051h9.789c0,0,0.311-0.93,0.311-2.018
				C24.332,21.094,23.865,20.319,23.865,20.319z"/>
			<linearGradient id="SVGID_3_" gradientUnits="userSpaceOnUse" x1="12.6445" y1="30.0386" x2="23.2521" y2="23.9143">
				<stop  offset="0" style="stop-color:#FFFFFF;stop-opacity:0"/>
				<stop  offset="0.477" style="stop-color:#FFFFFF;stop-opacity:0.2636"/>
				<stop  offset="0.543" style="stop-color:#FFFFFF;stop-opacity:0.3"/>
				<stop  offset="0.5728" style="stop-color:#FFFFFF;stop-opacity:0.2804"/>
				<stop  offset="1" style="stop-color:#FFFFFF;stop-opacity:0"/>
			</linearGradient>
			<path fill="url(#SVGID_3_)" d="M12.678,30.094h6.215c0,0,1.244-0.311,2.799-1.861c1.709-1.553,2.174-3.258,2.174-3.258h-9.012
				L12.678,30.094z"/>
		</g>
	</g>
	<g>
		<path fill="#BCBEC0" d="M38.631,22.237c0,1.943-0.539,3.43-1.621,4.459c-1.082,1.027-2.639,1.543-4.672,1.543h-3.301V16.459h3.646
			c1.879,0,3.338,0.504,4.383,1.514C38.109,18.983,38.631,20.405,38.631,22.237z M36.598,22.301c0-2.82-1.32-4.23-3.961-4.23h-1.672
			v8.549h1.373C35.178,26.62,36.598,25.18,36.598,22.301z"/>
		<path fill="#BCBEC0" d="M48.484,28.239l-1.178-3.271h-4.512l-1.152,3.271h-2.035l4.414-11.828h2.1l4.414,11.828H48.484z
			 M46.799,23.307L45.693,20.1c-0.082-0.215-0.193-0.553-0.336-1.014c-0.143-0.463-0.24-0.801-0.295-1.016
			c-0.145,0.66-0.357,1.383-0.637,2.168l-1.064,3.068H46.799z"/>
		<path fill="#BCBEC0" d="M56.168,28.239h-1.93V18.112h-3.471v-1.652h8.869v1.652h-3.469V28.239z"/>
		<path fill="#BCBEC0" d="M68.766,28.239l-1.18-3.271h-4.51l-1.154,3.271h-2.033l4.414-11.828H66.4l4.414,11.828H68.766z
			 M67.078,23.307L65.973,20.1c-0.08-0.215-0.191-0.553-0.334-1.014c-0.143-0.463-0.242-0.801-0.295-1.016
			c-0.146,0.66-0.357,1.383-0.639,2.168l-1.064,3.068H67.078z"/>
		<path fill="#BCBEC0" d="M77.393,17.942c-1.109,0-1.98,0.393-2.615,1.176c-0.635,0.785-0.953,1.867-0.953,3.248
			c0,1.443,0.307,2.537,0.916,3.277c0.611,0.742,1.494,1.113,2.652,1.113c0.5,0,0.984-0.051,1.451-0.15
			c0.469-0.1,0.955-0.227,1.461-0.383v1.652c-0.926,0.35-1.975,0.523-3.146,0.523c-1.727,0-3.053-0.521-3.979-1.566
			s-1.389-2.539-1.389-4.484c0-1.225,0.225-2.295,0.674-3.215c0.449-0.918,1.1-1.621,1.949-2.109c0.85-0.49,1.848-0.735,2.994-0.735
			c1.205,0,2.318,0.254,3.34,0.758l-0.693,1.604c-0.398-0.188-0.818-0.354-1.264-0.496C78.348,18.012,77.881,17.942,77.393,17.942z"
			/>
		<path fill="#BCBEC0" d="M93.322,22.333c0,1.918-0.48,3.408-1.441,4.471c-0.961,1.064-2.32,1.596-4.078,1.596
			c-1.781,0-3.15-0.527-4.104-1.582c-0.955-1.057-1.434-2.557-1.434-4.5c0-1.945,0.48-3.438,1.441-4.48
			c0.959-1.041,2.33-1.563,4.111-1.563c1.754,0,3.109,0.53,4.066,1.588C92.842,18.918,93.322,20.411,93.322,22.333z M84.316,22.333
			c0,1.451,0.293,2.551,0.879,3.299c0.586,0.75,1.455,1.125,2.607,1.125c1.145,0,2.01-0.371,2.594-1.113
			c0.584-0.74,0.875-1.844,0.875-3.311c0-1.445-0.289-2.541-0.867-3.287s-1.439-1.119-2.586-1.119c-1.156,0-2.029,0.373-2.619,1.119
			S84.316,20.887,84.316,22.333z"/>
		<path fill="#BCBEC0" d="M100.955,28.239l-3.422-9.838h-0.064c0.092,1.461,0.137,2.83,0.137,4.109v5.729h-1.75V16.459h2.719
			l3.277,9.369h0.047l3.373-9.369H108v11.779h-1.855v-5.826c0-0.584,0.014-1.348,0.043-2.287s0.057-1.51,0.078-1.709h-0.064
			l-3.543,9.822H100.955z"/>
	</g>
	<g>
		<g>
			<path fill="#808285" d="M0,0.197c0.248-0.029,0.551-0.057,0.902-0.082C1.256,0.09,1.602,0.076,1.939,0.076
				c1.387,0,2.424,0.352,3.111,1.057c0.688,0.703,1.031,1.716,1.031,3.035c0,1.379-0.352,2.402-1.053,3.069S3.283,8.238,1.895,8.238
				c-0.346,0-0.688-0.013-1.025-0.039C0.531,8.174,0.242,8.143,0,8.106V0.197z M1.123,7.183c0.104,0.015,0.23,0.027,0.381,0.038
				c0.15,0.012,0.311,0.017,0.479,0.017c0.434,0,0.828-0.05,1.186-0.148C3.523,6.99,3.83,6.823,4.088,6.588
				c0.256-0.234,0.455-0.551,0.594-0.951c0.141-0.399,0.209-0.9,0.209-1.502c0-0.549-0.068-1.019-0.209-1.407
				c-0.139-0.389-0.336-0.706-0.59-0.952C3.84,1.53,3.537,1.353,3.184,1.242C2.83,1.133,2.441,1.078,2.016,1.078
				c-0.139,0-0.291,0.001-0.457,0.005S1.248,1.1,1.123,1.121V7.183z"/>
			<path fill="#808285" d="M8.418,5.555C8.432,6.17,8.592,6.621,8.896,6.907s0.754,0.429,1.35,0.429
				c0.521,0,1.018-0.092,1.488-0.274c0.059,0.11,0.105,0.243,0.143,0.401s0.059,0.313,0.066,0.468
				c-0.242,0.103-0.51,0.179-0.799,0.231c-0.291,0.051-0.611,0.076-0.965,0.076c-0.514,0-0.955-0.071-1.322-0.215
				C8.49,7.881,8.188,7.68,7.949,7.419S7.535,6.851,7.426,6.495C7.314,6.139,7.26,5.749,7.26,5.323c0-0.418,0.055-0.808,0.16-1.171
				c0.107-0.363,0.27-0.679,0.49-0.946s0.498-0.48,0.832-0.638C9.076,2.41,9.471,2.332,9.926,2.332c0.391,0,0.732,0.065,1.025,0.197
				c0.293,0.133,0.541,0.313,0.738,0.545c0.199,0.23,0.35,0.506,0.451,0.824c0.104,0.319,0.154,0.666,0.154,1.04
				c0,0.103-0.004,0.211-0.01,0.325c-0.008,0.113-0.016,0.21-0.023,0.291H8.418z M11.215,4.74c0-0.205-0.027-0.401-0.082-0.588
				c-0.055-0.188-0.135-0.351-0.242-0.49c-0.105-0.139-0.242-0.251-0.408-0.335c-0.164-0.085-0.361-0.126-0.588-0.126
				c-0.449,0-0.793,0.135-1.031,0.406S8.48,4.256,8.428,4.74H11.215z"/>
			<path fill="#808285" d="M12.813,2.463c0.104-0.014,0.209-0.025,0.32-0.032c0.109-0.007,0.209-0.011,0.297-0.011
				c0.096,0,0.201,0.004,0.314,0.011s0.211,0.019,0.291,0.032l1.543,4.653l1.555-4.653c0.08-0.014,0.172-0.025,0.275-0.032
				c0.102-0.007,0.201-0.011,0.297-0.011c0.08,0,0.172,0.004,0.275,0.011s0.205,0.019,0.309,0.032l-2.203,5.644
				c-0.096,0.015-0.191,0.025-0.287,0.033c-0.096,0.007-0.184,0.011-0.264,0.011c-0.082,0-0.168-0.004-0.26-0.011
				c-0.092-0.008-0.182-0.019-0.27-0.033L12.813,2.463z"/>
			<path fill="#808285" d="M19.953,5.555c0.014,0.615,0.174,1.066,0.479,1.353s0.756,0.429,1.35,0.429
				c0.521,0,1.018-0.092,1.488-0.274c0.059,0.11,0.105,0.243,0.143,0.401s0.059,0.313,0.066,0.468
				c-0.242,0.103-0.508,0.179-0.799,0.231c-0.291,0.051-0.611,0.076-0.965,0.076c-0.514,0-0.953-0.071-1.32-0.215
				c-0.369-0.143-0.672-0.344-0.91-0.604s-0.412-0.568-0.523-0.924c-0.109-0.356-0.164-0.746-0.164-1.172
				c0-0.418,0.053-0.808,0.158-1.171c0.107-0.363,0.271-0.679,0.49-0.946c0.221-0.268,0.498-0.48,0.832-0.638
				c0.334-0.158,0.729-0.236,1.186-0.236c0.389,0,0.73,0.065,1.023,0.197c0.295,0.133,0.541,0.313,0.738,0.545
				c0.199,0.23,0.35,0.506,0.453,0.824c0.102,0.319,0.154,0.666,0.154,1.04c0,0.103-0.004,0.211-0.012,0.325
				c-0.008,0.113-0.016,0.21-0.021,0.291H19.953z M22.752,4.74c0-0.205-0.027-0.401-0.084-0.588
				c-0.055-0.188-0.135-0.351-0.242-0.49c-0.105-0.139-0.242-0.251-0.406-0.335c-0.166-0.085-0.363-0.126-0.59-0.126
				c-0.449,0-0.791,0.135-1.031,0.406c-0.238,0.271-0.383,0.648-0.434,1.133H22.752z"/>
			<path fill="#808285" d="M25.242,0.043c0.08-0.014,0.17-0.025,0.27-0.033c0.1-0.006,0.189-0.01,0.27-0.01s0.17,0.004,0.27,0.01
				c0.1,0.008,0.189,0.02,0.27,0.033v6.358c0,0.206,0.02,0.366,0.057,0.483c0.035,0.118,0.086,0.208,0.148,0.27
				c0.063,0.063,0.135,0.104,0.221,0.121c0.084,0.02,0.174,0.027,0.27,0.027c0.066,0,0.141-0.003,0.227-0.01
				c0.084-0.008,0.154-0.019,0.215-0.033c0.064,0.256,0.098,0.535,0.098,0.836c-0.102,0.036-0.227,0.061-0.375,0.071
				c-0.146,0.011-0.281,0.017-0.406,0.017c-0.213,0-0.412-0.025-0.596-0.077s-0.346-0.136-0.484-0.253
				c-0.141-0.117-0.25-0.275-0.33-0.473c-0.082-0.198-0.121-0.443-0.121-0.737V0.043z"/>
			<path fill="#808285" d="M30.838,8.238c-0.439,0-0.826-0.075-1.156-0.225c-0.33-0.15-0.605-0.358-0.826-0.622
				c-0.221-0.265-0.385-0.575-0.49-0.935c-0.107-0.359-0.16-0.748-0.16-1.166s0.053-0.807,0.16-1.166
				c0.105-0.359,0.27-0.672,0.49-0.936s0.496-0.473,0.826-0.627s0.717-0.23,1.156-0.23c0.441,0,0.826,0.076,1.158,0.23
				c0.33,0.154,0.605,0.363,0.826,0.627s0.383,0.576,0.49,0.936c0.105,0.359,0.16,0.748,0.16,1.166s-0.055,0.807-0.16,1.166
				c-0.107,0.359-0.27,0.67-0.49,0.935c-0.221,0.264-0.496,0.472-0.826,0.622C31.664,8.163,31.279,8.238,30.838,8.238z
				 M30.838,7.369c0.508,0,0.883-0.184,1.125-0.55s0.363-0.876,0.363-1.528c0-0.653-0.121-1.161-0.363-1.523
				c-0.242-0.363-0.617-0.545-1.125-0.545c-0.506,0-0.879,0.182-1.117,0.545c-0.24,0.362-0.359,0.87-0.359,1.523
				c0,0.652,0.119,1.162,0.359,1.528C29.959,7.186,30.332,7.369,30.838,7.369z"/>
			<path fill="#808285" d="M34.893,2.463c0.074-0.014,0.148-0.025,0.227-0.032c0.076-0.007,0.156-0.011,0.236-0.011
				c0.074,0,0.15,0.004,0.232,0.011c0.08,0.007,0.158,0.019,0.23,0.032c0.008,0.016,0.018,0.061,0.027,0.139
				c0.012,0.076,0.023,0.158,0.033,0.247c0.012,0.088,0.021,0.173,0.033,0.253s0.018,0.132,0.018,0.154
				c0.072-0.117,0.16-0.231,0.264-0.342c0.104-0.109,0.227-0.209,0.369-0.297s0.305-0.157,0.484-0.209
				c0.18-0.051,0.381-0.076,0.602-0.076c0.33,0,0.637,0.055,0.92,0.164c0.281,0.11,0.523,0.281,0.727,0.512
				c0.201,0.23,0.359,0.524,0.475,0.881c0.113,0.355,0.17,0.775,0.17,1.259c0,0.968-0.264,1.726-0.787,2.271
				c-0.525,0.546-1.27,0.819-2.232,0.819c-0.162,0-0.326-0.011-0.496-0.033c-0.168-0.021-0.314-0.051-0.439-0.088v2.586
				c-0.088,0.014-0.182,0.025-0.281,0.032s-0.189,0.011-0.27,0.011c-0.082,0-0.172-0.004-0.271-0.011
				c-0.098-0.007-0.188-0.019-0.27-0.032V2.463z M35.984,7.183c0.139,0.052,0.281,0.088,0.43,0.11
				c0.146,0.021,0.338,0.033,0.572,0.033c0.264,0,0.508-0.043,0.727-0.127c0.221-0.084,0.41-0.215,0.568-0.391
				s0.283-0.398,0.375-0.666s0.137-0.584,0.137-0.951c0-0.586-0.107-1.053-0.324-1.396c-0.217-0.346-0.572-0.518-1.064-0.518
				c-0.184,0-0.359,0.033-0.527,0.1c-0.17,0.065-0.32,0.164-0.453,0.297c-0.131,0.132-0.238,0.299-0.318,0.5
				c-0.082,0.201-0.121,0.441-0.121,0.721V7.183z"/>
			<path fill="#808285" d="M42.221,5.555c0.014,0.615,0.174,1.066,0.479,1.353s0.756,0.429,1.35,0.429
				c0.521,0,1.018-0.092,1.488-0.274c0.059,0.11,0.105,0.243,0.143,0.401s0.059,0.313,0.066,0.468
				c-0.242,0.103-0.508,0.179-0.799,0.231c-0.289,0.051-0.611,0.076-0.963,0.076c-0.516,0-0.955-0.071-1.322-0.215
				c-0.369-0.143-0.672-0.344-0.91-0.604s-0.414-0.568-0.523-0.924c-0.111-0.356-0.166-0.746-0.166-1.172
				c0-0.418,0.055-0.808,0.16-1.171c0.107-0.363,0.27-0.679,0.49-0.946s0.498-0.48,0.832-0.638c0.334-0.158,0.73-0.236,1.186-0.236
				c0.389,0,0.73,0.065,1.023,0.197c0.295,0.133,0.541,0.313,0.738,0.545c0.199,0.23,0.35,0.506,0.453,0.824
				c0.102,0.319,0.154,0.666,0.154,1.04c0,0.103-0.004,0.211-0.012,0.325c-0.008,0.113-0.016,0.21-0.021,0.291H42.221z M45.02,4.74
				c0-0.205-0.027-0.401-0.082-0.588c-0.057-0.188-0.137-0.351-0.244-0.49c-0.105-0.139-0.242-0.251-0.406-0.335
				c-0.166-0.085-0.363-0.126-0.59-0.126c-0.449,0-0.791,0.135-1.031,0.406c-0.238,0.271-0.383,0.648-0.436,1.133H45.02z"/>
			<path fill="#808285" d="M51.154,0.043c0.082-0.014,0.174-0.025,0.277-0.033C51.533,0.004,51.621,0,51.695,0
				c0.08,0,0.17,0.004,0.27,0.01c0.1,0.008,0.189,0.02,0.27,0.033v7.91c-0.279,0.08-0.59,0.148-0.936,0.203s-0.73,0.082-1.156,0.082
				c-0.398,0-0.773-0.049-1.131-0.148c-0.355-0.1-0.666-0.262-0.93-0.489c-0.266-0.228-0.475-0.521-0.629-0.88
				s-0.23-0.803-0.23-1.331c0-0.454,0.066-0.869,0.203-1.243c0.135-0.374,0.328-0.695,0.578-0.963s0.549-0.475,0.898-0.621
				c0.348-0.146,0.736-0.221,1.162-0.221c0.191,0,0.383,0.016,0.578,0.045s0.365,0.066,0.512,0.109V0.043z M51.154,3.42
				c-0.146-0.059-0.305-0.102-0.473-0.131c-0.17-0.029-0.354-0.045-0.551-0.045c-0.301,0-0.563,0.055-0.783,0.166
				c-0.219,0.109-0.402,0.26-0.545,0.45s-0.25,0.417-0.318,0.677c-0.07,0.26-0.105,0.545-0.105,0.853
				c0.008,0.696,0.172,1.195,0.496,1.495c0.322,0.301,0.764,0.451,1.322,0.451c0.189,0,0.367-0.009,0.527-0.027
				c0.162-0.018,0.307-0.045,0.43-0.082V3.42z"/>
			<path fill="#808285" d="M56.588,0.043c0.08-0.014,0.17-0.025,0.27-0.033c0.1-0.006,0.189-0.01,0.27-0.01
				c0.082,0,0.174,0.004,0.275,0.01c0.104,0.008,0.195,0.02,0.275,0.033v3.103c0.133-0.22,0.338-0.411,0.617-0.572
				s0.617-0.241,1.014-0.241c0.338,0,0.65,0.055,0.938,0.164c0.285,0.11,0.531,0.281,0.738,0.512
				c0.205,0.23,0.365,0.524,0.479,0.881c0.113,0.355,0.172,0.775,0.172,1.259c0,0.968-0.275,1.726-0.822,2.271
				s-1.334,0.819-2.363,0.819c-0.322,0-0.654-0.031-0.996-0.094s-0.631-0.133-0.865-0.214V0.043z M57.678,7.193
				c0.133,0.044,0.273,0.075,0.426,0.094c0.15,0.018,0.307,0.027,0.467,0.027c0.271,0,0.523-0.042,0.756-0.127
				c0.23-0.084,0.432-0.213,0.6-0.385c0.17-0.172,0.303-0.393,0.402-0.66s0.148-0.584,0.148-0.951c0-0.608-0.105-1.082-0.318-1.419
				S59.592,3.267,59.1,3.267c-0.168,0-0.336,0.027-0.502,0.083c-0.164,0.055-0.316,0.143-0.457,0.264
				c-0.139,0.121-0.252,0.282-0.336,0.484c-0.084,0.201-0.127,0.445-0.127,0.73V7.193z"/>
			<path fill="#808285" d="M64.918,8.117c-0.059,0-0.119,0.002-0.182,0.006s-0.123,0.006-0.182,0.006
				c-0.074,0-0.152-0.002-0.232-0.006s-0.146-0.01-0.197-0.017l-1.873-5.644c0.094-0.014,0.193-0.023,0.297-0.027
				s0.197-0.005,0.287-0.005c0.094,0,0.201,0.001,0.318,0.005s0.217,0.014,0.297,0.027l1.566,5.248l1.619-5.248
				c0.154-0.021,0.334-0.032,0.539-0.032c0.082,0,0.174,0.001,0.275,0.005c0.104,0.004,0.205,0.014,0.309,0.027L65.568,9.25
				c-0.104,0.301-0.211,0.555-0.32,0.76s-0.234,0.37-0.375,0.494c-0.139,0.125-0.295,0.213-0.469,0.265
				c-0.172,0.052-0.371,0.077-0.6,0.077c-0.17,0-0.336-0.014-0.502-0.039c-0.164-0.025-0.311-0.057-0.436-0.094
				c0-0.168,0.016-0.318,0.045-0.451c0.029-0.131,0.074-0.264,0.133-0.396c0.066,0.022,0.156,0.046,0.27,0.071
				s0.236,0.039,0.369,0.039c0.096,0,0.186-0.01,0.27-0.027c0.084-0.019,0.164-0.055,0.236-0.11
				c0.074-0.055,0.143-0.134,0.205-0.236s0.123-0.242,0.182-0.418L64.918,8.117z"/>
		</g>
	</g>
</g>
</svg>
